HIERARCHY
ROOT Hips
{
	OFFSET 0.00000 0.00000 0.00000
	CHANNELS 6 Xposition Yposition Zposition Zrotation Yrotation Xrotation 
	JOINT LHipJoint
	{
		OFFSET 0 0 0
		CHANNELS 3 Zrotation Yrotation Xrotation
		JOINT LeftHip
		{
			OFFSET 1.58895 -1.83665 0.71753
			CHANNELS 3 Zrotation Yrotation Xrotation
			JOINT LeftKnee
			{
				OFFSET 2.50528 -6.88321 0.00000
				CHANNELS 3 Zrotation Yrotation Xrotation
				JOINT LeftAnkle
				{
					OFFSET 2.63244 -7.23257 0.00000
					CHANNELS 3 Zrotation Yrotation Xrotation
					JOINT LeftToe
					{
						OFFSET 0.23691 -0.65090 1.72750
						CHANNELS 3 Zrotation Yrotation Xrotation
						End Site
						{
							OFFSET 0.00000 -0.00000 0.92561
						}
					}
				}
			}
		}
	}
	JOINT RHipJoint
	{
		OFFSET 0 0 0
		CHANNELS 3 Zrotation Yrotation Xrotation
		JOINT RightHip
		{
			OFFSET -1.51435 -1.83665 0.71753
			CHANNELS 3 Zrotation Yrotation Xrotation
			JOINT RightKnee
			{
				OFFSET -2.54551 -6.99375 0.00000
				CHANNELS 3 Zrotation Yrotation Xrotation
				JOINT RightAnkle
				{
					OFFSET -2.66027 -7.30903 0.00000
					CHANNELS 3 Zrotation Yrotation Xrotation
					JOINT RightToe
					{
						OFFSET -0.22981 -0.63138 2.03959
						CHANNELS 3 Zrotation Yrotation Xrotation
						End Site
						{
							OFFSET -0.00000 -0.00000 1.07060
						}
					}
				}
			}
		}
	}
	JOINT lowerback
	{
		OFFSET 0 0 0
		CHANNELS 3 Zrotation Yrotation Xrotation
		JOINT Chest
		{
			OFFSET -0.02651 1.86275 -0.11152
			CHANNELS 3 Zrotation Yrotation Xrotation
			JOINT Chest2
			{
				OFFSET 0.01019 1.86224 0.04087
				CHANNELS 3 Zrotation Yrotation Xrotation
				JOINT lowerneck
				{
					OFFSET 0 0 0
					CHANNELS 3 Zrotation Yrotation Xrotation
					JOINT Neck
					{
						OFFSET -0.01926 1.80512 0.08867
						CHANNELS 3 Zrotation Yrotation Xrotation
						JOINT Head
						{
							OFFSET 0.05516 1.76451 -0.38475
							CHANNELS 3 Zrotation Yrotation Xrotation
							End Site
							{
								OFFSET 0.01592 1.82587 -0.14001
							}
						}
					}
				}
				JOINT LeftCollar
				{
					OFFSET 0 0 0
					CHANNELS 3 Zrotation Yrotation Xrotation
					JOINT LeftShoulder
					{
						OFFSET 3.47116 1.51376 0.14491
CHANNELS 3 Zrotation Xrotation Yrotation
						JOINT LeftElbow
						{
OFFSET 0 -4.780950 0.000000
CHANNELS 3 Zrotation Xrotation Yrotation
							JOINT LeftWrist
							{
OFFSET 0 -3.586150 -0.000000
CHANNELS 3 Zrotation Xrotation Yrotation
								JOINT lhand
								{
									OFFSET 0 0 0
CHANNELS 3 Zrotation Xrotation Yrotation
									JOINT LFingers
									{
OFFSET 0 -0.659810 0.000000
CHANNELS 3 Zrotation Xrotation Yrotation
										End Site
										{
OFFSET 0 -0.531960 0.000000
										}
									}
								}
								JOINT LThumb
								{
OFFSET 0 0.000000 0.000000
CHANNELS 3 Zrotation Xrotation Yrotation
									End Site
									{
OFFSET 0 -0.540080 0.540080
									}
								}
							}
						}
					}
				}
				JOINT RightCollar
				{
					OFFSET 0 0 0
					CHANNELS 3 Zrotation Yrotation Xrotation
					JOINT RightShoulder
					{
						OFFSET -3.31725 1.61216 0.35156
CHANNELS 3 Zrotation Xrotation Yrotation
						JOINT RightElbow
						{
OFFSET 0 -4.489130 0.000000
CHANNELS 3 Zrotation Xrotation Yrotation
							JOINT RightWrist
							{
OFFSET 0 -3.705100 0.000000
CHANNELS 3 Zrotation Xrotation Yrotation
								JOINT rhand
								{
									OFFSET 0 0 0
CHANNELS 3 Zrotation Xrotation Yrotation
									JOINT RFingers
									{
OFFSET 0 -0.449140 0.000000
CHANNELS 3 Zrotation Xrotation Yrotation
										End Site
										{
OFFSET 0 -0.362110 0.000000
										}
									}
								}
								JOINT RThumb
								{
OFFSET 0 0.000000 0.000000
CHANNELS 3 Zrotation Xrotation Yrotation
									End Site
									{
OFFSET 0 -0.367630 0.367630
									}
								}
							}
						}
					}
				}
			}
		}
	}
}
MOTION
Frames: 4
Frame Time: 0.008333333333333333
-0.931000 18.655200 6.232500 -2.426100 -3.450100 -1.608300 0.000000 0.000000 0.000000 -14.992600 -5.237600 1.113700 1.529500 7.808200 22.133100 1.826700 6.345100 -28.467300 8.566500 -16.520500 -54.578500 0.000000 0.000000 0.000000 0.000000 0.000000 0.000000 0.000000 0.000000 0.000000 -0.000000 -0.000000 0.000000 -0.000000 -0.000000 0.000000 0.270700 0.807200 1.937200 0.705600 1.100000 -1.193600 0.528700 0.550500 -2.318300 0.045500 -0.402500 -9.382600 1.408000 -0.922000 23.813500 0.374900 -0.284900 8.997000 0.000000 0.000000 0.000000 -4.107000 12.350700 -21.054900 20.800900 -31.595200 5.945300 8.868300 8.557700 25.431300 0.000000 0.000000 0.000000 -7.125000 0.000000 0.000000 -12.601500 4.800100 -11.797800 0.000000 0.000000 0.000000 1.252600 18.657400 21.040600 -23.880000 -35.037100 -7.637500 -9.385700 21.062200 27.147600 0.000000 0.000000 0.000000 7.125000 0.000000 -0.000000 22.448300 55.996300 -6.280500
-0.931600 18.655176 6.230541 -2.414368 -3.439967 -1.602088 0.000000 0.000000 0.000000 -15.015289 -5.308815 1.142802 1.526234 7.800397 22.109379 1.824799 6.382963 -28.476600 8.536379 -16.499958 -54.472421 0.000000 0.000000 0.000000 0.000000 0.000000 0.000000 0.000000 0.000000 0.000000 0.000000 0.000000 0.000000 0.000000 0.000000 0.000000 0.268520 0.822905 1.931161 0.690892 1.120453 -1.201218 0.514063 0.560679 -2.322665 0.027877 -0.429255 -9.329971 1.438658 -0.962643 23.786979 0.384127 -0.302687 8.978453 0.000000 0.000000 0.000000 -4.069529 12.361317 -21.149618 20.776915 -31.566986 5.932713 8.976712 8.451699 25.491209 0.000000 0.000000 0.000000 -7.125000 0.000000 0.000000 -12.537889 4.729600 -11.752204 0.000000 0.000000 0.000000 1.312826 18.672500 20.944460 -23.860433 -35.016362 -7.626384 -9.512252 21.295474 27.095760 0.000000 0.000000 0.000000 7.125000 0.000000 0.000000 22.288732 55.973698 -6.220100
-0.930958 18.654653 6.229900 -2.414508 -3.447491 -1.626608 0.000000 0.000000 0.000000 -15.038125 -5.378077 1.207101 1.524319 7.795632 22.095072 1.844831 6.373000 -28.603894 8.531587 -16.496669 -54.455634 0.000000 0.000000 0.000000 0.000000 0.000000 0.000000 0.000000 0.000000 0.000000 0.000000 0.000000 0.000000 0.000000 0.000000 0.000000 0.290176 0.830010 1.942678 0.679177 1.130464 -1.197033 0.489399 0.565189 -2.324222 0.030366 -0.434653 -9.299134 1.381639 -0.955692 23.723610 0.364960 -0.305683 8.950397 0.000000 0.000000 0.000000 -4.074639 12.371723 -21.123366 20.783261 -31.574482 5.936033 9.003570 8.479960 25.504030 0.000000 0.000000 0.000000 -7.125000 0.000000 0.000000 -12.522051 4.714212 -11.740278 0.000000 0.000000 0.000000 1.326660 18.701184 20.990377 -23.856006 -35.011663 -7.623825 -9.618376 21.233453 27.007937 0.000000 0.000000 0.000000 7.125000 0.000000 0.000000 22.126182 55.913823 -6.138825
-0.929787 18.654971 6.228887 -2.387872 -3.433529 -1.618780 0.000000 0.000000 0.000000 -15.060659 -5.373885 1.177781 1.527389 7.803269 22.118107 1.847027 6.324656 -28.591116 8.502404 -16.476617 -54.352782 0.000000 0.000000 0.000000 0.000000 0.000000 0.000000 0.000000 0.000000 0.000000 0.000000 0.000000 0.000000 0.000000 0.000000 0.000000 0.269892 0.826389 1.944711 0.682347 1.125091 -1.197111 0.504150 0.562836 -2.325885 0.007496 -0.427209 -9.312392 1.446735 -0.957243 23.760415 0.390864 -0.301280 8.966052 0.000000 0.000000 0.000000 -4.117511 12.341282 -21.093254 20.771405 -31.560565 5.929845 9.065904 8.501730 25.475066 0.000000 0.000000 0.000000 -7.125000 0.000000 0.000000 -12.483714 4.735703 -11.697347 0.000000 0.000000 0.000000 1.315981 18.677069 20.927687 -23.820931 -34.974289 -7.603655 -9.617325 21.307512 26.831839 0.000000 0.000000 0.000000 7.125000 0.000000 0.000000 22.013402 55.751161 -6.016711
